HIERARCHY
ROOT Hips
{
    OFFSET 0.000000 0.000000 0.000000
    CHANNELS 6 Xposition Yposition Zposition Zrotation Xrotation Yrotation
        JOINT Chest
        {
            OFFSET -0.000000 26.978363 -0.000000
            CHANNELS 3 Zrotation Xrotation Yrotation
            JOINT Neck
            {
                OFFSET -0.000000 19.720629 0.000000
                CHANNELS 3 Zrotation Xrotation Yrotation
                JOINT Head
                {
                    OFFSET -0.000000 9.655557 0.000000
                    CHANNELS 3 Zrotation Xrotation Yrotation
                    End Site
                    {
                        OFFSET -0.000000 14.922232 0.000000
                    }
                }
            }
            JOINT LeftCollar
            {
                OFFSET -0.000000 19.720629 0.000000
                CHANNELS 3 Zrotation Xrotation Yrotation
                JOINT LeftShoulder
                {
                    OFFSET 17.555553 -0.000000 0.000000
                    CHANNELS 3 Zrotation Xrotation Yrotation
                    JOINT LeftElbow
                    {
                        OFFSET 22.589397 0.000000 0.000000
                        CHANNELS 3 Zrotation Xrotation Yrotation
                        JOINT LeftWrist
                        {
                            OFFSET 20.401022 0.000000 0.000000
                            CHANNELS 3 Zrotation Xrotation Yrotation
                            End Site
                            {
                                OFFSET 0.000000 -13.166666 0.000000
                            }
                        }
                    }
                }
            }
            JOINT RightCollar
            {
                OFFSET -0.000000 19.720629 0.000000
                CHANNELS 3 Zrotation Xrotation Yrotation
                JOINT RightShoulder
                {
                    OFFSET -17.555553 0.000000 0.000000
                    CHANNELS 3 Zrotation Xrotation Yrotation
                    JOINT RightElbow
                    {
                        OFFSET -22.589397 0.000000 0.000000
                        CHANNELS 3 Zrotation Xrotation Yrotation
                        JOINT RightWrist
                        {
                            OFFSET -20.401022 0.000000 0.000000
                            CHANNELS 3 Zrotation Xrotation Yrotation
                            End Site
                            {
                                OFFSET -0.000000 -13.166666 0.000000
                            }
                        }
                    }
                }
            }
        }
    JOINT LeftHip
    {
        OFFSET 10.533332 0.000000 0.000000
        CHANNELS 3 Zrotation Xrotation Yrotation
        JOINT LeftKnee
        {
            OFFSET -0.000000 -40.048210 0.000000
            CHANNELS 3 Zrotation Xrotation Yrotation
            JOINT LeftAnkle
            {
                OFFSET -0.000000 -36.098888 0.000000
                CHANNELS 3 Zrotation Xrotation Yrotation
                End Site
                {
                    OFFSET -0.000000 -4.388888 14.922232
                }
            }
        }
    }
    JOINT RightHip
    {
        OFFSET -10.533332 0.000000 0.000000
        CHANNELS 3 Zrotation Xrotation Yrotation
        JOINT RightKnee
        {
            OFFSET -0.000000 -40.048210 0.000000
            CHANNELS 3 Zrotation Xrotation Yrotation
            JOINT RightAnkle
            {
                OFFSET -0.000000 -36.098888 0.000000
                CHANNELS 3 Zrotation Xrotation Yrotation
                End Site
                {
                    OFFSET -0.000000 -4.388888 14.922232
                }
            }
        }
    }
}
MOTION
Frames:    15
Frame Time:    0.010000
-44.152683    84.535858    -30.601809    0.122695    -0.511421    -7.374936    -3.304952    -0.947148    1.071944    6.425660    5.544147    1.454172    2.033079    1.370602    1.698073    -22.578131    -0.923651    4.723539    -19.599154    53.622631    -28.584991    -8.126348    1.973605    -26.997072    102.678589    -17.541075    30.742939    12.038144    0.327900    3.374167    65.568741    -4.009650    4.440831    16.098747    1.574986    11.241329    -83.220299    5.531042    42.140842    3.107167    4.586318    3.222904    1.896021    3.546288    21.834936    -5.869771    -5.260489    4.164723    -6.619777    0.196670    2.991341    -0.179541    3.963589    -0.328764    10.177809    -8.941098    -6.175747    
-44.172794    84.533646    -30.588448    0.099215    -0.516012    -7.394199    -3.333772    -0.972100    1.045032    6.698535    5.705067    1.140954    2.041069    1.005006    1.455003    -22.581766    -0.895876    4.384809    -18.756754    54.484344    -29.408482    -7.730372    1.821618    -26.998682    102.016052    -17.932545    31.063416    12.108382    0.311902    2.841807    65.649384    -3.955989    4.647746    16.143950    1.548936    10.965645    -83.457626    4.904892    42.130009    3.233562    4.685296    2.724478    1.632947    3.481252    21.585974    -5.925787    -5.422183    5.180990    -6.577256    0.190950    2.969894    -0.188948    4.007654    -0.237790    10.185453    -8.988898    -6.253825    
-44.177063    84.514191    -30.560627    0.096479    -0.531926    -7.407985    -3.349021    -0.983738    1.017540    6.706896    5.713850    1.166430    1.985755    1.066278    1.482154    -22.590031    -0.876664    4.312249    -18.901276    54.387520    -29.295223    -7.740007    1.870929    -27.001183    101.959045    -17.961761    30.895044    12.070840    0.290266    2.742606    65.807045    -3.643200    4.892512    16.000292    1.486543    10.720400    -83.379372    4.736610    41.802341    3.158243    4.642297    2.918919    1.833061    3.604275    21.686335    -5.354919    -5.326296    4.347185    -6.570137    0.214451    2.966000    -0.189185    4.017798    -0.211518    10.164581    -8.993596    -6.271060    
-44.189899    84.514847    -30.547184    0.088657    -0.536840    -7.418810    -3.352477    -0.995698    0.996091    6.726429    5.743577    1.174048    1.948730    1.063108    1.495427    -22.598993    -0.849284    4.305563    -18.776304    54.468735    -29.461828    -7.663716    1.863474    -27.001257    101.808243    -18.067127    30.920435    12.048838    0.289222    2.689332    65.915375    -3.496072    5.060991    15.933362    1.445555    10.486381    -83.412338    4.469710    41.675102    3.162327    4.646302    2.871809    1.848809    3.641591    21.679024    -5.240962    -5.355608    4.301671    -6.556423    0.221716    2.961462    -0.188005    4.032928    -0.179199    10.151171    -9.009999    -6.297507    
-44.205360    84.517357    -30.532021    0.080708    -0.540163    -7.430578    -3.357267    -1.011456    0.969734    6.755697    5.773621    1.182413    1.899673    1.064111    1.503847    -22.601610    -0.877535    4.266129    -18.730053    54.565769    -29.563599    -7.528937    1.826239    -26.996103    101.663269    -18.163004    30.972055    12.022616    0.268201    2.626189    66.043800    -3.320520    5.240217    15.832038    1.461810    10.302063    -83.432648    4.233413    41.445480    3.167242    4.648012    2.824964    1.866510    3.683546    21.684193    -5.143607    -5.389974    4.247592    -6.542308    0.228877    2.956271    -0.185057    4.048659    -0.143776    10.134065    -9.027765    -6.321770    
-44.222942    84.520973    -30.515034    0.072998    -0.541086    -7.443175    -3.362842    -1.031561    0.938486    6.790378    5.801021    1.189628    1.844958    1.069679    1.514731    -22.606728    -0.833558    4.200554    -18.799076    54.544559    -29.540945    -7.588727    1.825288    -27.000366    101.618538    -18.259043    30.898647    11.989021    0.294684    2.562455    66.197876    -3.167558    5.474799    15.721519    1.397134    9.959147    -83.484459    3.891919    41.303696    3.173936    4.647202    2.779998    1.883401    3.728724    21.699598    -5.064086    -5.428295    4.191888    -6.527923    0.235008    2.949322    -0.180538    4.064944    -0.104785    10.113010    -9.046509    -6.343159    
-44.242294    84.525040    -30.496199    0.065534    -0.538684    -7.456798    -3.368626    -1.056828    0.903136    6.828641    5.823365    1.195643    1.788523    1.081959    1.524431    -22.605944    -0.833501    4.113294    -18.900503    54.540997    -29.513536    -7.497742    1.810349    -27.001854    101.563263    -18.303038    30.958233    11.954803    0.265167    2.499907    66.361176    -2.970398    5.681193    15.582702    1.352872    9.810145    -83.518242    3.687719    41.078262    3.182796    4.642619    2.743901    1.899196    3.777483    21.717327    -5.005504    -5.470189    4.140382    -6.512817    0.239093    2.941031    -0.174735    4.081422    -0.064050    10.088070    -9.065474    -6.360457    
-44.263203    84.529053    -30.475533    0.058019    -0.532438    -7.471865    -3.373245    -1.087165    0.864847    6.862144    5.838095    1.205314    1.737930    1.104330    1.538098    -22.604998    -0.813601    4.026708    -19.049107    54.505188    -29.440842    -7.496784    1.809861    -27.011814    101.631409    -18.327728    31.010134    11.919069    0.224021    2.451784    66.535881    -2.776429    5.876378    15.425042    1.305892    9.568046    -83.555122    3.448217    40.865570    3.193662    4.632873    2.726685    1.915593    3.831369    21.726044    -4.972808    -5.515861    4.098694    -6.496199    0.240478    2.934185    -0.168003    4.097714    -0.025739    10.059748    -9.083730    -6.372764    
-44.285538    84.532646    -30.453125    0.049748    -0.522190    -7.488755    -3.377019    -1.123756    0.824875    6.897620    5.846851    1.207720    1.694676    1.131932    1.543488    -22.603333    -0.793655    3.932613    -19.173662    54.494194    -29.405025    -7.454279    1.810403    -27.025116    101.745415    -18.306440    31.155876    11.884652    0.256857    2.400292    66.718933    -2.628308    6.130255    15.256133    1.249690    9.161011    -83.589363    3.145218    40.695141    3.206274    4.616823    2.737087    1.935345    3.892044    21.716696    -4.969409    -5.564991    4.069874    -6.476912    0.238864    2.932634    -0.160590    4.113584    0.004819    10.028676    -9.100508    -6.379331    
-44.309181    84.535652    -30.429029    0.039854    -0.508513    -7.507712    -3.377283    -1.164584    0.784859    6.919537    5.846799    1.219181    1.666276    1.171287    1.553845    -22.604738    -0.759407    3.871904    -19.234941    54.504719    -29.445753    -7.427798    1.774688    -27.041626    101.940102    -18.264681    31.341608    11.856174    0.255671    2.371467    66.889565    -2.437054    6.356279    15.072615    1.180315    8.990208    -83.613884    2.986478    40.480846    3.220413    4.594420    2.780288    1.961058    3.960439    21.685547    -4.995697    -5.616885    4.052899    -6.453834    0.234559    2.940844    -0.152705    4.129377    0.022757    9.995421    -9.115618    -6.380649    
-44.334049    84.538017    -30.403221    0.027326    -0.492683    -7.528865    -3.375360    -1.209521    0.746087    6.941262    5.842469    1.220448    1.650584    1.211674    1.555646    -22.606655    -0.759536    3.821716    -19.201736    54.613979    -29.594515    -7.292224    1.749918    -27.058817    102.128654    -18.170578    31.678675    11.840405    0.227022    2.336711    67.045341    -2.225761    6.547411    14.871515    1.168811    8.833846    -83.609039    2.870045    40.207626    3.236437    4.567015    2.856081    1.993910    4.036186    21.635353    -5.051252    -5.669743    4.043965    -6.425821    0.228275    2.962041    -0.144704    4.146409    0.025583    9.960990    -9.129735    -6.378042    
-44.360088    84.539780    -30.375546    0.011218    -0.476246    -7.552280    -3.369155    -1.255491    0.710037    6.951393    5.832239    1.225117    1.650335    1.258349    1.561231    -22.611677    -0.799523    3.810472    -19.073015    54.820889    -29.846825    -7.125634    1.709257    -27.077461    102.360481    -18.061987    32.083977    11.831908    0.246475    2.319454    67.189392    -2.035143    6.762376    14.678926    1.104706    8.553255    -83.608025    2.687953    40.023590    3.255309    4.536746    2.960668    2.033303    4.118320    21.570496    -5.139256    -5.721819    4.041265    -6.391884    0.220550    2.997203    -0.137184    4.167147    0.014151    9.926495    -9.144426    -6.373513    
-44.387207    84.541107    -30.345900    -0.009088    -0.460681    -7.577765    -3.359603    -1.300658    0.677556    6.959671    5.819157    1.225268    1.661267    1.302904    1.559106    -22.627317    -0.766226    3.819270    -18.851912    55.018074    -30.185131    -7.077602    1.716122    -27.104681    102.622231    -17.949276    32.441254    11.834102    0.246564    2.305086    67.316544    -1.826842    6.953434    14.481200    1.046895    8.435023    -83.580223    2.623306    39.819588    3.278008    4.505619    3.089192    2.077715    4.206068    21.494017    -5.268458    -5.772019    4.046653    -6.351289    0.211644    3.044764    -0.131221    4.194436    -0.009438    9.893390    -9.161182    -6.367757    
-44.415249    84.542145    -30.314270    -0.033741    -0.447277    -7.604808    -3.345964    -1.342136    0.649424    6.962732    5.803334    1.224214    1.681278    1.345239    1.557863    -22.645323    -0.787260    3.854972    -18.485470    55.322960    -30.696384    -6.859693    1.643081    -27.125864    102.807610    -17.832216    32.878014    11.841956    0.246880    2.305989    67.434448    -1.634998    7.128299    14.280263    1.062059    8.297882    -83.529053    2.572582    39.584278    3.304984    4.475008    3.239542    2.125861    4.299210    21.405949    -5.446984    -5.820483    4.063142    -6.303965    0.201784    3.101415    -0.127705    4.230556    -0.042660    9.862738    -9.181177    -6.360082    
-44.443844    84.543053    -30.280838    -0.062179    -0.437079    -7.632385    -3.329013    -1.377079    0.625620    6.963555    5.785487    1.224875    1.705759    1.382085    1.553435    -22.669678    -0.788913    3.911022    -18.050575    55.643219    -31.271545    -6.717335    1.619844    -27.154879    102.974815    -17.729990    33.255882    11.853924    0.219365    2.321303    67.543678    -1.450214    7.265672    14.098444    1.015658    8.234931    -83.494781    2.544489    39.439713    3.335490    4.445467    3.411620    2.177385    4.397904    21.305901    -5.672261    -5.867638    4.090108    -6.250779    0.191372    3.162086    -0.127608    4.276752    -0.082330    9.835401    -9.204948    -6.348871    
